HIERARCHY
ROOT root
{
	OFFSET	0	13.1	24.9
	CHANNELS 6  Xposition Yposition Zposition Xrotation Yrotation Zrotation
	JOINT spine_1
	{
		OFFSET	0	9.99999	0
		CHANNELS 3  Xrotation Yrotation Zrotation
		JOINT spine_2
		{
			OFFSET	0	112	-10
			CHANNELS 3  Xrotation Yrotation Zrotation
			JOINT spine_3
			{
				OFFSET	0	206.5	19.3
				CHANNELS 3  Xrotation Yrotation Zrotation
				JOINT spine_4
				{
					OFFSET	0	110.4	14.6
					CHANNELS 3  Xrotation Yrotation Zrotation
					JOINT neck_1
					{
						OFFSET	0	71.8	-50.3
						CHANNELS 3  Xrotation Yrotation Zrotation
						JOINT neck_2
						{
							OFFSET	0	86.2	-25.8
							CHANNELS 3  Xrotation Yrotation Zrotation
							JOINT head_ee
							{
								OFFSET	0	179.8	-8.7
								CHANNELS 3  Xrotation Yrotation Zrotation
								End Site
								{
									OFFSET	1	0	0
								}
							}
						}
					}
					JOINT left_clavicle
					{
						OFFSET	-43.2	22.4	-70.8
						CHANNELS 3  Xrotation Yrotation Zrotation
						JOINT left_shoulder
						{
							OFFSET	-93.9	-5.79999	48.7
							CHANNELS 3  Xrotation Yrotation Zrotation
							JOINT left_elbow
							{
								OFFSET	-291.4	-30.8	15.2
								CHANNELS 3  Xrotation Yrotation Zrotation
								JOINT left_lowarm_twist
								{
									OFFSET	-110.7	-3.89999	13.6
									CHANNELS 3  Xrotation Yrotation Zrotation
									JOINT left_hand
									{
										OFFSET	-110.7	-3.89999	13.6
										CHANNELS 3  Xrotation Yrotation Zrotation
										JOINT left_ee
										{
											OFFSET	-80.8	-5.10001	12.1
											CHANNELS 3  Xrotation Yrotation Zrotation
											End Site
											{
												OFFSET	1	0	0
											}
										}
									}
								}
							}
						}
					}
					JOINT right_clavicle
					{
						OFFSET	43.2	22.4	-70.8
						CHANNELS 3  Xrotation Yrotation Zrotation
						JOINT right_shoulder
						{
							OFFSET	93.9	-5.79999	48.7
							CHANNELS 3  Xrotation Yrotation Zrotation
							JOINT right_elbow
							{
								OFFSET	291.4	-30.8	15.2
								CHANNELS 3  Xrotation Yrotation Zrotation
								JOINT right_lowarm_twist
								{
									OFFSET	110.7	-3.89999	13.6
									CHANNELS 3  Xrotation Yrotation Zrotation
									JOINT right_hand
									{
										OFFSET	110.7	-3.89999	13.6
										CHANNELS 3  Xrotation Yrotation Zrotation
										JOINT right_ee
										{
											OFFSET	80.8	-5.10001	12.1
											CHANNELS 3  Xrotation Yrotation Zrotation
											End Site
											{
												OFFSET	1	0	0
											}
										}
									}
								}
							}
						}
					}
				}
			}
		}
	}
	JOINT left_hip
	{
		OFFSET	-82.8	-127.5	0.300001
		CHANNELS 3  Xrotation Yrotation Zrotation
		JOINT left_knee
		{
			OFFSET	-28.2	-396.7	2.2
			CHANNELS 3  Xrotation Yrotation Zrotation
			JOINT left_ankle
			{
				OFFSET	-11.7	-411.3	35.4
				CHANNELS 3  Xrotation Yrotation Zrotation
				JOINT left_toes
				{
					OFFSET	0	-60	-88.6
					CHANNELS 3  Xrotation Yrotation Zrotation
					JOINT left_foot_ee
					{
						OFFSET	-22.5	-16.5	-42.2
						CHANNELS 3  Xrotation Yrotation Zrotation
						End Site
						{
							OFFSET	1	0	0
						}
					}
				}
			}
		}
	}
	JOINT right_hip
	{
		OFFSET	82.8	-127.5	0.300001
		CHANNELS 3  Xrotation Yrotation Zrotation
		JOINT right_knee
		{
			OFFSET	28.2	-396.7	2.2
			CHANNELS 3  Xrotation Yrotation Zrotation
			JOINT right_ankle
			{
				OFFSET	11.7	-411.3	35.4
				CHANNELS 3  Xrotation Yrotation Zrotation
				JOINT right_toes
				{
					OFFSET	0	-60	-88.6
					CHANNELS 3  Xrotation Yrotation Zrotation
					JOINT right_foot_ee
					{
						OFFSET	22.5	-16.5	-42.2
						CHANNELS 3  Xrotation Yrotation Zrotation
						End Site
						{
							OFFSET	1	0	0
						}
					}
				}
			}
		}
	}
}
MOTION
Frames: 14
Frame Time: 0.02
2914.5197134 705.852 -1845.88352122 7.84338120894 31.6237276071 1.2725797441 -4.69567 -0.317599 -0.425348 -4.69561 -0.28989 -0.444695 -4.69311 -0.148765 -0.509566 -4.6934 -0.227373 -0.479678 -1.08548 17.268 8.27937 -0.621249 24.4487 10.7349 -0.0 0.0 -0.0 10.3567 15.7498 18.7428 -2.80574 -37.4296 44.8491 1.05314 -27.5502 0.258198 -4.65356 -0.187026 0.564521 -0.0370882 12.7938 5.03191 -0.0 0.0 -0.0 10.5137 18.6289 -20.6493 -14.0744 31.873 -56.8556 0.251876 7.11233 -0.0156533 34.5806 0.0977889 4.35004 2.34654 13.753 -9.977 0.0 0.0 0.0 12.5338 -25.8941 -0.303752 -30.2218 0.0355074 4.5844 -15.9268 29.2273 2.55069 38.0274 -0.0 -0.0 -0.0 0.0 -0.0 29.7136 37.5388 -27.7025 -53.7491 1.56412 -7.8018 37.4002 -23.965 4.88061 21.499 -0.0 -0.0 0.0 0.0 0.0 
2911.72404318 705.852 -1841.65509942 7.92229710615 32.5330801425 1.12398914881 -4.69567 -0.317599 -0.425348 -4.69561 -0.28989 -0.444695 -4.69311 -0.148765 -0.509566 -4.6934 -0.227373 -0.479678 -1.08548 17.268 8.27937 -0.621249 24.4487 10.7349 -0.0 0.0 -0.0 10.3567 15.7498 18.7428 -2.80574 -37.4296 44.8491 1.05314 -27.5502 0.258198 -4.65356 -0.187026 0.564521 -0.0370882 12.7938 5.03191 -0.0 0.0 -0.0 10.5137 18.6289 -20.6493 -14.0744 31.873 -56.8556 0.251876 7.11233 -0.0156533 34.5806 0.0977889 4.35004 2.34654 13.753 -9.977 0.0 0.0 0.0 12.5338 -25.8941 -0.303752 -30.2218 0.0355074 4.5844 -15.9268 29.2273 2.55069 38.0274 -0.0 -0.0 -0.0 0.0 -0.0 29.7136 37.5388 -27.7025 -53.7491 1.56412 -7.8018 37.4002 -23.965 4.88061 21.499 -0.0 -0.0 0.0 0.0 0.0 
2887.76364704 705.738 -1831.75932995 7.11773294793 36.3506412367 0.381576281139 -4.67633 -0.273574 -0.528862 -4.67621 -0.239367 -0.545198 -4.67356 -0.0715141 -0.591119 -4.67402 -0.163971 -0.572407 -0.00434239 16.0034 4.47116 0.450994 24.9602 6.40323 -0.0 0.0 -0.0 10.4665 15.4372 18.9827 -0.184491 -33.5331 44.7848 1.69087 -39.9465 0.614573 -6.19536 -0.259044 0.74803 -0.642632 6.21194 -1.60491 -0.0 0.0 -0.0 9.94305 16.9566 -19.4701 -16.0295 33.1227 -56.2037 0.370456 10.399 -0.033711 32.8275 0.0296581 4.13657 1.95889 11.1 -8.52483 0.0 0.0 0.0 6.30083 -26.6168 -0.679438 -20.1872 0.293366 3.06799 -2.21607 26.9852 0.343671 40.1251 -0.0 -0.0 -0.0 0.0 -0.0 35.6805 38.8528 -25.0808 -48.442 1.08921 -7.13683 41.7093 -16.7206 5.11276 20.3572 -0.0 -0.0 0.0 0.0 0.0 
2884.49949704 705.738 -1825.80605747 7.22779251694 37.5140307454 0.198419238837 -4.67633 -0.273574 -0.528862 -4.67621 -0.239367 -0.545198 -4.67356 -0.0715141 -0.591119 -4.67402 -0.163971 -0.572407 -0.00434239 16.0034 4.47116 0.450994 24.9602 6.40323 -0.0 0.0 -0.0 10.4665 15.4372 18.9827 -0.184491 -33.5331 44.7848 1.69087 -39.9465 0.614573 -6.19536 -0.259044 0.74803 -0.642632 6.21194 -1.60491 -0.0 0.0 -0.0 9.94305 16.9566 -19.4701 -16.0295 33.1227 -56.2037 0.370456 10.399 -0.033711 32.8275 0.0296581 4.13657 1.95889 11.1 -8.52483 0.0 0.0 0.0 6.30083 -26.6168 -0.679438 -20.1872 0.293366 3.06799 -2.21607 26.9852 0.343671 40.1251 -0.0 -0.0 -0.0 0.0 -0.0 35.6805 38.8528 -25.0808 -48.442 1.08921 -7.13683 41.7093 -16.7206 5.11276 20.3572 -0.0 -0.0 0.0 0.0 0.0 
2776.93185273 710.813 -1856.75469991 4.12707804594 35.0380122663 1.21094895395 -4.22138 -0.214536 -0.221053 -4.22138 -0.200035 -0.234257 -4.2205 -0.125988 -0.2811 -4.22057 -0.168801 -0.257675 -4.55485 9.78271 2.96856 -4.48132 15.7101 4.66144 -0.0 0.0 -0.0 10.4498 9.24107 19.7926 6.98959 -32.915 40.2398 2.16085 -46.9421 0.938357 -1.93617 -0.0722306 0.236681 -2.34864 9.90887 -11.0171 -0.0 0.0 -0.0 9.54102 13.2543 -18.7469 -19.3945 31.1122 -55.4604 0.542311 15.0374 -0.071577 39.4737 0.322172 4.93384 0.904551 4.80323 -4.0635 0.0 0.0 0.0 -1.90097 -30.3069 4.2185 -9.76577 0.277259 1.47128 2.95334 29.7492 -0.460931 40.1447 -0.0 -0.0 -0.0 0.0 -0.0 56.705 45.5586 -32.5404 -41.4477 0.561427 -6.19973 39.5946 -25.4081 5.14213 21.13 -0.0 -0.0 0.0 0.0 0.0 
2774.98260006 710.813 -1852.53701456 4.15793995745 35.6389706461 1.15759283817 -4.22138 -0.214536 -0.221053 -4.22138 -0.200035 -0.234257 -4.2205 -0.125988 -0.2811 -4.22057 -0.168801 -0.257675 -4.55485 9.78271 2.96856 -4.48132 15.7101 4.66144 -0.0 0.0 -0.0 10.4498 9.24107 19.7926 6.98959 -32.915 40.2398 2.16085 -46.9421 0.938357 -1.93617 -0.0722306 0.236681 -2.34864 9.90887 -11.0171 -0.0 0.0 -0.0 9.54102 13.2543 -18.7469 -19.3945 31.1122 -55.4604 0.542311 15.0374 -0.071577 39.4737 0.322172 4.93384 0.904551 4.80323 -4.0635 0.0 0.0 0.0 -1.90097 -30.3069 4.2185 -9.76577 0.277259 1.47128 2.95334 29.7492 -0.460931 40.1447 -0.0 -0.0 -0.0 0.0 -0.0 56.705 45.5586 -32.5404 -41.4477 0.561427 -6.19973 39.5946 -25.4081 5.14213 21.13 -0.0 -0.0 0.0 0.0 0.0 
2753.07276866 703.707 -1863.92506014 3.62551516191 35.4689122207 0.954030062851 -4.15922 -0.134855 -0.0287955 -4.15923 -0.13275 -0.0373184 -4.15915 -0.11695 -0.0730601 -4.15913 -0.127021 -0.053673 -1.14565 7.44436 -0.949833 -1.01264 14.1362 -0.123661 -0.0 0.0 -0.0 10.405 6.13875 20.0328 6.63818 -32.0188 38.4036 2.26646 -48.3025 1.01637 -4.14781 -0.164483 0.503916 -2.121 8.68762 -10.1308 -0.0 0.0 -0.0 9.55719 14.7891 -18.7212 -18.6809 30.9841 -57.4731 0.393281 11.0245 -0.0379535 37.6483 0.232631 4.71829 1.35405 7.82516 -5.83004 0.0 0.0 0.0 -0.0613288 -30.5362 7.21484 -13.3274 0.315448 2.01634 7.42339 30.4545 -1.15104 40.0204 -0.0 -0.0 -0.0 0.0 -0.0 56.3503 51.0269 -31.7066 -29.0841 -0.0780559 -4.41499 30.4673 -26.8894 4.21063 21.444 -0.0 -0.0 0.0 0.0 0.0 
2725.75966617 699.433 -1883.46016251 3.85504404977 35.1356656319 0.49743391119 -4.35377 -0.0160881 -0.0158044 -4.35377 -0.0150498 -0.0167961 -4.35376 -0.0096645 -0.0203765 -4.35376 -0.0127613 -0.0185944 1.19034 7.07797 -0.24546 1.32843 12.7149 0.368069 -0.0 0.0 -0.0 10.4537 4.95866 20.2373 7.17541 -30.6315 39.1299 2.48888 -50.9469 1.18586 -7.06101 -0.301639 0.850203 -1.77363 5.39149 -9.41597 -0.0 0.0 -0.0 9.47104 14.1994 -18.5564 -19.8766 30.173 -57.4886 0.410781 11.5022 -0.0413717 40.082 0.353536 5.00504 0.745892 5.83796 -2.55663 0.0 0.0 0.0 0.134251 -30.8537 9.53659 -16.4832 0.320933 2.50045 12.0566 30.4049 -1.84316 40.0748 -0.0 -0.0 -0.0 0.0 -0.0 54.7055 56.3775 -31.3998 -23.0494 -0.246976 -3.50469 31.31 -26.9104 4.30862 20.9721 -0.0 -0.0 0.0 0.0 0.0 
2698.889434 696.97 -1894.48638177 2.62625839018 35.6303117587 0.715597506336 -4.42821 0.0430717 0.226981 -4.42818 0.0285411 0.229261 -4.42801 -0.0379895 0.227886 -4.42809 -0.00152245 0.231026 2.89245 5.52984 -1.75739 3.04271 11.1418 -1.57046 -0.0 0.0 -0.0 10.8221 4.15604 21.0487 7.28416 -29.4269 38.6633 2.78885 -54.0913 1.424 -10.8097 -0.503779 1.28492 -1.80022 4.9288 -9.81081 -0.0 0.0 -0.0 9.59359 13.9965 -18.8348 -19.7159 29.6193 -57.406 0.36446 10.2343 -0.0326372 42.4724 0.484067 5.28151 0.470091 3.75521 -1.57403 0.0 0.0 0.0 0.851635 -32.2653 11.0725 -17.3436 0.317803 2.63242 13.6733 29.2709 -2.06259 39.9038 -0.0 -0.0 -0.0 0.0 -0.0 53.3723 61.6743 -30.0 -15.532 -0.322088 -2.35451 27.6975 -26.4985 3.87191 21.787 -0.0 -0.0 0.0 0.0 0.0 
2703.14844537 696.97 -1903.3156358 2.59225566678 34.568675311 0.774730339767 -4.42821 0.0430717 0.226981 -4.42818 0.0285411 0.229261 -4.42801 -0.0379895 0.227886 -4.42809 -0.00152245 0.231026 2.89245 5.52984 -1.75739 3.04271 11.1418 -1.57046 -0.0 0.0 -0.0 10.8221 4.15604 21.0487 7.28416 -29.4269 38.6633 2.78885 -54.0913 1.424 -10.8097 -0.503779 1.28492 -1.80022 4.9288 -9.81081 -0.0 0.0 -0.0 9.59359 13.9965 -18.8348 -19.7159 29.6193 -57.406 0.36446 10.2343 -0.0326372 42.4724 0.484067 5.28151 0.470091 3.75521 -1.57403 0.0 0.0 0.0 0.851635 -32.2653 11.0725 -17.3436 0.317803 2.63242 13.6733 29.2709 -2.06259 39.9038 -0.0 -0.0 -0.0 0.0 -0.0 53.3723 61.6743 -30.0 -15.532 -0.322088 -2.35451 27.6975 -26.4985 3.87191 21.787 -0.0 -0.0 0.0 0.0 0.0 
2704.67232491 696.97 -1906.37631832 2.5808092769 34.1983913087 0.79499902251 -4.42821 0.0430717 0.226981 -4.42818 0.0285411 0.229261 -4.42801 -0.0379895 0.227886 -4.42809 -0.00152245 0.231026 2.89245 5.52984 -1.75739 3.04271 11.1418 -1.57046 -0.0 0.0 -0.0 10.8221 4.15604 21.0487 7.28416 -29.4269 38.6633 2.78885 -54.0913 1.424 -10.8097 -0.503779 1.28492 -1.80022 4.9288 -9.81081 -0.0 0.0 -0.0 9.59359 13.9965 -18.8348 -19.7159 29.6193 -57.406 0.36446 10.2343 -0.0326372 42.4724 0.484067 5.28151 0.470091 3.75521 -1.57403 0.0 0.0 0.0 0.851635 -32.2653 11.0725 -17.3436 0.317803 2.63242 13.6733 29.2709 -2.06259 39.9038 -0.0 -0.0 -0.0 0.0 -0.0 53.3723 61.6743 -30.0 -15.532 -0.322088 -2.35451 27.6975 -26.4985 3.87191 21.787 -0.0 -0.0 0.0 0.0 0.0 
2707.7157486 696.97 -1912.3450722 2.55897751232 33.4727815753 0.834206763534 -4.42821 0.0430717 0.226981 -4.42818 0.0285411 0.229261 -4.42801 -0.0379895 0.227886 -4.42809 -0.00152245 0.231026 2.89245 5.52984 -1.75739 3.04271 11.1418 -1.57046 -0.0 0.0 -0.0 10.8221 4.15604 21.0487 7.28416 -29.4269 38.6633 2.78885 -54.0913 1.424 -10.8097 -0.503779 1.28492 -1.80022 4.9288 -9.81081 -0.0 0.0 -0.0 9.59359 13.9965 -18.8348 -19.7159 29.6193 -57.406 0.36446 10.2343 -0.0326372 42.4724 0.484067 5.28151 0.470091 3.75521 -1.57403 0.0 0.0 0.0 0.851635 -32.2653 11.0725 -17.3436 0.317803 2.63242 13.6733 29.2709 -2.06259 39.9038 -0.0 -0.0 -0.0 0.0 -0.0 53.3723 61.6743 -30.0 -15.532 -0.322088 -2.35451 27.6975 -26.4985 3.87191 21.787 -0.0 -0.0 0.0 0.0 0.0 
2711.03295864 696.97 -1918.64582163 2.53661810293 32.7015907061 0.875163540493 -4.42821 0.0430717 0.226981 -4.42818 0.0285411 0.229261 -4.42801 -0.0379895 0.227886 -4.42809 -0.00152245 0.231026 2.89245 5.52984 -1.75739 3.04271 11.1418 -1.57046 -0.0 0.0 -0.0 10.8221 4.15604 21.0487 7.28416 -29.4269 38.6633 2.78885 -54.0913 1.424 -10.8097 -0.503779 1.28492 -1.80022 4.9288 -9.81081 -0.0 0.0 -0.0 9.59359 13.9965 -18.8348 -19.7159 29.6193 -57.406 0.36446 10.2343 -0.0326372 42.4724 0.484067 5.28151 0.470091 3.75521 -1.57403 0.0 0.0 0.0 0.851635 -32.2653 11.0725 -17.3436 0.317803 2.63242 13.6733 29.2709 -2.06259 39.9038 -0.0 -0.0 -0.0 0.0 -0.0 53.3723 61.6743 -30.0 -15.532 -0.322088 -2.35451 27.6975 -26.4985 3.87191 21.787 -0.0 -0.0 0.0 0.0 0.0 
2657.77305014 678.957 -1948.62447256 -0.305862192852 36.1412275154 1.42584692097 -4.38699 -0.0839885 0.149184 -4.38698 -0.0933113 0.143537 -4.38722 -0.130274 0.111079 -4.38722 -0.111097 0.13026 9.01066 6.36552 -5.0224 9.55272 15.0839 -6.03185 -0.0 0.0 -0.0 10.1968 2.37063 19.9211 7.62616 -29.9147 39.1611 2.92403 -55.3687 1.53437 -15.9262 -0.824803 1.85535 -1.17795 4.63829 -5.81417 -0.0 0.0 -0.0 9.89925 11.1094 -19.5942 -19.0472 29.141 -55.9307 0.411332 11.5172 -0.0414816 49.5073 0.933766 6.06088 -0.601938 -0.841729 3.65833 0.0 0.0 0.0 -0.0481754 -31.4599 12.3591 -15.3346 0.322023 2.32422 31.5059 28.4067 -4.37597 40.1885 -0.0 -0.0 -0.0 0.0 -0.0 50.6891 71.3318 -23.6462 0.799773 0.0337585 0.118086 10.8849 -23.9593 1.6055 22.836 -0.0 -0.0 0.0 0.0 0.0 
